PathFileType	4	(X/Y/Z)	C:/Users/opensim2020/Desktop/walking_exp_matlab/subject03_walking10_straight_02.trc	
DataRate	CameraRate	NumFrames	NumMarkers	Units	OrigDataRate	OrigDataStartFrame	OrigNumFrames	
100.00	100.00	6	45	mm	100.00	1945	347	
Frame#	Time	LFHD			RFHD			LBHD			RBHD			C7			T10			CLAV			STRN			RBAK			LSHO			LUPA			LELB			LFRM			LWRA			LWRB			LFIN			RSHO			RUPA			RELB			RFRM			RWRA			RWRB			RFIN			LASI			RASI			LPSI			RPSI			LTHI			LKNE			LTIB			LANK			LHEE			LTOE			RTHI			RKNE			RTIB			RANK			RHEE			RTOE			*39			*40			*41			*42			*43			*44			
		X1	Y1	Z1	X2	Y2	Z2	X3	Y3	Z3	X4	Y4	Z4	X5	Y5	Z5	X6	Y6	Z6	X7	Y7	Z7	X8	Y8	Z8	X9	Y9	Z9	X10	Y10	Z10	X11	Y11	Z11	X12	Y12	Z12	X13	Y13	Z13	X14	Y14	Z14	X15	Y15	Z15	X16	Y16	Z16	X17	Y17	Z17	X18	Y18	Z18	X19	Y19	Z19	X20	Y20	Z20	X21	Y21	Z21	X22	Y22	Z22	X23	Y23	Z23	X24	Y24	Z24	X25	Y25	Z25	X26	Y26	Z26	X27	Y27	Z27	X28	Y28	Z28	X29	Y29	Z29	X30	Y30	Z30	X31	Y31	Z31	X32	Y32	Z32	X33	Y33	Z33	X34	Y34	Z34	X35	Y35	Z35	X36	Y36	Z36	X37	Y37	Z37	X38	Y38	Z38	X39	Y39	Z39	X40	Y40	Z40	X41	Y41	Z41	X42	Y42	Z42	X43	Y43	Z43	X44	Y44	Z44	X45	Y45	Z45	

131	1.300	-983.69769	168.66681	1611.17029	-1114.55994	192.69762	1606.49817	-962.08643	300.59613	1590.22107	-1091.88379	319.45947	1584.48315	-1014.25372	361.73425	1420.94446	-1013.02283	402.93442	1105.67810	-1017.15143	244.60948	1339.90784	-1008.11450	202.14050	1175.80298	-1108.04980	421.62799	1241.09119	-860.40125	282.92758	1378.72815	-791.04443	287.49545	1180.44202	-782.35126	278.62488	1056.58923	-785.17200	249.32368	929.53412	-818.02490	227.63307	812.81683	-766.32104	249.92369	815.96899	-780.18024	236.95287	731.58179	-1176.04773	291.96481	1359.79004	-1244.51587	286.38315	1135.26013	-1255.05762	267.70425	1023.60236	-1254.01196	248.99408	887.89160	-1216.10779	220.58554	792.93945	-1261.97119	248.37463	787.62628	-1249.46497	226.25826	716.27362	-891.85291	242.43320	936.82666	-1130.08923	233.92247	941.47174	-946.70844	402.63278	958.41357	-1095.50977	396.30783	973.22772	-834.31055	277.33255	634.65424	-848.77130	253.29100	456.24655	-856.55194	405.32635	329.75830	-901.21344	550.30902	183.71144	-946.28320	598.78760	185.83946	-904.51733	478.17490	52.77264	-1165.00098	279.49091	647.53705	-1125.73010	252.42400	468.41141	-1123.45886	288.33957	281.19760	-1067.03394	301.53571	67.24302	-1013.34296	341.87378	35.58603	-1060.59692	158.27820	32.33878	-1035.31018	248.22935	1681.49426															 
132	1.310	-984.08337	161.05157	1611.09241	-1114.87122	184.73396	1606.41907	-962.78204	293.18387	1590.44983	-1092.60754	311.63129	1584.71411	-1015.37427	354.60895	1421.22620	-1014.34760	396.17200	1105.97827	-1017.66492	237.47859	1340.12463	-1008.67059	195.32684	1175.89233	-1109.42944	414.33835	1241.49695	-861.06311	277.01465	1378.95520	-791.80457	282.79733	1180.48914	-783.11475	274.31125	1056.65186	-785.26563	246.19279	929.37396	-817.19354	225.68253	812.20868	-765.73749	248.30962	815.99249	-778.43286	235.76770	731.51550	-1176.73560	284.00104	1360.16284	-1245.47437	276.51483	1135.85754	-1256.05042	256.78625	1024.39368	-1255.34424	237.12112	888.83478	-1217.34167	208.53783	794.01648	-1263.66394	235.65012	788.65271	-1251.40735	212.80350	717.62476	-892.95154	235.50084	937.65411	-1131.24622	227.01057	941.55042	-948.05884	395.96448	958.68677	-1096.83960	389.28403	973.06622	-835.36017	265.96960	635.55865	-849.51251	238.24565	457.70807	-856.95514	388.73282	329.78098	-901.12207	532.33643	182.17722	-945.96979	581.61249	183.09021	-904.76251	456.90967	53.17578	-1166.02136	273.70535	647.22607	-1126.03650	248.09621	468.14395	-1123.60461	285.74130	281.13208	-1066.95972	301.32379	67.39586	-1013.32635	341.81281	35.81604	-1060.50586	158.16475	32.25434																		 
133	1.320	-984.27148	153.51358	1610.82788	-1115.17871	176.76071	1606.24170	-963.45380	285.71683	1590.77466	-1093.32239	303.82339	1585.09167	-1016.53534	347.67920	1421.49927	-1015.67261	389.32050	1106.24829	-1018.11371	230.53406	1340.29114	-1009.23773	188.62381	1176.09595	-1110.80408	407.03809	1241.94531	-861.73724	270.95456	1379.23853	-792.50079	278.22705	1180.78882	-783.70477	270.14322	1057.00244	-785.07660	243.07890	929.46301	-816.22083	223.45451	811.88074	-764.97699	246.49817	816.31921	-776.65546	234.18828	731.80859	-1177.35889	276.19138	1360.55859	-1246.32837	266.72980	1136.55627	-1256.78345	245.85112	1025.26221	-1256.62000	225.25179	889.99701	-1218.66089	196.31642	795.34271	-1265.23962	222.94940	789.79504	-1253.28687	199.34718	719.11615	-893.94232	228.41066	938.65753	-1132.57715	219.98997	941.59192	-949.39716	389.17041	959.01257	-1098.09082	382.30991	972.94061	-836.63409	254.65324	636.52838	-850.49554	223.43797	459.25519	-857.42963	371.79694	329.30865	-901.02899	513.74219	179.64218	-945.23450	563.59631	179.14926	-905.20215	434.42224	53.58642	-1166.10767	267.35492	646.82965	-1126.29785	243.85796	467.83673	-1123.79468	283.31558	281.14481	-1066.86841	301.12439	67.58964	-1013.34729	341.75415	36.12274	-1060.41895	158.07942	32.18094																		 
134	1.330	-984.40991	145.96007	1610.52014	-1115.37341	168.77960	1606.05920	-964.05127	278.44727	1591.23059	-1093.93982	295.99109	1585.51660	-1017.55341	340.73563	1421.81665	-1017.00092	382.57123	1106.53369	-1018.48608	223.64389	1340.52209	-1009.84644	181.88391	1176.26978	-1112.18469	399.78922	1242.37012	-862.40686	265.05878	1379.54956	-793.12103	273.71249	1181.09460	-784.20093	266.34509	1057.42139	-784.78259	239.99326	929.73242	-815.24750	220.80435	811.79694	-764.27753	244.35352	816.76324	-775.10626	232.22632	732.30023	-1177.95068	268.62112	1361.11926	-1247.15051	257.05859	1137.40930	-1257.66772	235.09471	1026.36426	-1257.85168	213.38426	891.28302	-1219.91541	184.03755	796.70795	-1266.86633	210.12048	791.25793	-1255.07776	185.90500	720.76300	-895.19623	221.83476	939.44568	-1133.58228	213.16600	941.59003	-950.61542	382.41531	959.34039	-1099.37500	375.25491	972.85968	-837.95551	243.80621	637.46552	-851.74280	208.90152	460.97171	-857.93719	354.66608	328.29327	-900.89490	494.55637	176.20528	-944.56329	545.03796	174.26509	-907.05084	411.15625	52.92239	-1166.98206	261.65735	646.78906	-1126.56189	239.83949	467.55252	-1123.95190	281.05939	281.13165	-1066.75134	300.92029	67.79668	-1013.33673	341.71066	36.51469	-1060.36157	157.95462	32.12222																		 
135	1.340	-984.35468	138.54747	1610.24683	-1115.47791	160.75632	1605.77185	-964.55585	270.95642	1591.55811	-1094.54688	288.19208	1586.07556	-1018.31201	333.88956	1422.12549	-1018.34070	375.80243	1106.75073	-1018.94855	216.88802	1340.71191	-1010.41766	175.17807	1176.46362	-1113.58374	392.52335	1242.74463	-863.03705	259.15256	1379.84607	-793.69873	269.24307	1181.39990	-784.40552	262.33630	1057.79468	-784.38507	236.85455	930.01099	-814.37659	218.08218	811.92627	-763.58655	241.96223	817.26599	-773.76312	230.03189	732.79828	-1178.51147	261.10529	1361.73242	-1247.98376	247.53865	1138.30786	-1258.72217	224.57132	1027.66919	-1259.08069	201.56789	892.67395	-1221.25964	171.67426	798.19983	-1268.43372	197.29343	792.64532	-1256.78259	172.42078	722.41278	-896.36963	215.19525	940.23254	-1134.52954	205.82629	941.84338	-951.88995	375.52664	959.74536	-1100.54773	368.29980	972.83856	-838.68817	232.08231	638.60687	-853.17358	194.54883	462.74612	-858.49481	337.31085	326.83401	-901.02094	474.65564	171.95351	-943.93561	525.77618	168.32698	-909.06262	386.70673	52.14277	-1167.52954	255.90047	646.62793	-1126.93555	236.00081	467.29303	-1124.10620	278.94128	281.20285	-1066.71655	300.94431	68.03778	-1013.29700	341.60068	36.85833	-1060.34497	157.86711	32.05301	-1027.56311	215.74840	1684.88025															 
136	1.350	-984.33789	130.94228	1609.40271	-1115.57446	152.75966	1605.44507	-964.98517	263.62500	1591.98120	-1095.06042	280.46368	1586.73450	-1019.42719	327.16071	1422.34741	-1019.69464	369.04623	1106.93921	-1019.31360	210.18507	1340.94006	-1010.92773	168.42491	1176.68604	-1115.10266	385.29770	1243.11633	-863.66650	253.35957	1380.11963	-794.15295	264.80890	1181.76978	-784.49475	258.74863	1058.04456	-783.94897	233.50279	930.30151	-813.53735	215.00696	812.01892	-762.90222	239.29518	817.69763	-772.52686	227.49849	733.21899	-1179.06055	253.72430	1362.39026	-1248.83691	238.17290	1139.23804	-1259.63708	214.00833	1028.82617	-1260.28333	189.79256	894.10114	-1222.57446	159.21646	799.81091	-1269.91150	184.57561	794.20416	-1258.42322	158.97708	724.12769	-897.51282	208.42224	941.02728	-1135.35730	199.57256	941.89166	-952.86969	368.80527	960.18817	-1101.66809	361.35117	972.93109	-839.89386	221.10828	639.81586	-855.00800	180.54500	464.49017	-859.18536	320.03812	325.07245	-901.21973	454.04010	166.96461	-943.40332	505.84766	161.47603	-911.22888	361.52402	51.18885	-1168.05811	250.25040	646.40845	-1127.34094	232.28761	467.04291	-1124.28137	276.86963	281.24442	-1066.78088	300.76697	68.43053	-1013.30676	341.56158	37.25978	-1060.32739	157.79077	31.97653	-1036.66418	208.07207	1681.71582															 
